<svg width="30" height="28" viewBox="0 0 30 28" fill="none" xmlns="http://www.w3.org/2000/svg">
<g clip-path="url(#clip0_46_1415)">
<path d="M7.8104 17.7887L5.6264 2.14958H1.00951C0.464206 2.14958 0 1.65083 0 1.0675C0 0.484167 0.464206 0 1.00951 0H5.80257C7.19519 0 7.56432 0.554167 7.71532 1.65083L7.98937 3.45917H21.099C21.0431 3.885 21.0179 4.31375 21.0179 4.73958C21.0179 9.8525 24.9497 13.9125 30.0028 13.9242L29.8937 14.2246C29.4156 15.365 28.4871 16.0037 27.0666 16.0037H9.73993L9.95805 17.5C10.0951 18.3692 10.5593 18.9379 11.3367 18.9379H27.0386C27.5699 18.9379 28.0341 19.3929 28.0341 20.0054C28.0341 20.6179 27.5699 21.0729 27.0386 21.0729H11.1046C9.12472 21.0729 8.10123 19.8042 7.8132 17.7829L7.8104 17.7887ZM12.1784 23.3858C13.406 23.3858 14.3904 24.4125 14.3904 25.6929C14.3904 26.9733 13.406 28 12.1784 28C10.9508 28 9.95246 26.9879 9.95246 25.6929C9.95246 24.3979 10.9368 23.3858 12.1784 23.3858ZM24.9469 23.3858C26.1885 23.3858 27.1728 24.4125 27.1728 25.6929C27.1728 26.9733 26.1885 28 24.9469 28C23.7053 28 22.7209 26.9879 22.7209 25.6929C22.7209 24.3979 23.7164 23.3858 24.9469 23.3858Z" fill="white"/>
</g>
<defs>
<clipPath id="clip0_46_1415">
<rect width="30" height="28" fill="white"/>
</clipPath>
</defs>
</svg>
